# xmcd
#
# Track frame offsets:
#	150
#	16102
#	30879
#	45550
#	59641
#	75629
#	91783
#	107869
#	122385
#	138947
#	154519
#	169985
#	185079
#	200816
#	216110
#	233163
#	249245
#	263983
#
# Disc length: 3725 seconds
#
# Revision: 0
# Processed by: cddbd v1.5.2PL0 Copyright (c) Steve Scherf et al.
# Submitted via: EasyCDDAExtractor 16.0.6.1
#
DISCID=ea0e8b12
DTITLE=Συλλογικός δίσκος - Το λαϊκό τραγούδι 1946-1956 4
DYEAR=2009
DGENRE=Λαϊκή
TTITLE0=Μπίνης Τάκης-Μπέλλου Σ.-Τσιτσάνης Β. - Τα καβουράκια [1951, Β. Τσιτσάν
TTITLE0=ης]
TTITLE1=Χασκίλ Στέλλα-Μπίνης Τ.-Χιώτης Μ. - Το καφεδάκι [1950, Ν. Ρούτσος-Μ. Χ
TTITLE1=ιώτης-Μιχ. Χιώτης]
TTITLE2=Μπέλλου Σωτηρία-Αγγελόπουλος Αλέκος - Φοβάμαι μη σε χάσω [1949, Γ. Παπ
TTITLE2=αϊωάννου]
TTITLE3=Χρυσάφη Άννα-Πλέσσας Σ.-Γιαννόπουλος Αθ. - Μιά γυναίκα δύο άνδρες [195
TTITLE3=2, Γ. Μητσάκης]
TTITLE4=Γεωργακοπούλου Ιωάννα-Μητσάκης Γ.-Τατασσόπουλος Γ. - Θα φύγω, θα με χά
TTITLE4=σεις [1951, Γ. Μητσάκης]
TTITLE5=Τσαουσάκης Πρόδρομος-Γρίλλη Μαρία - Η στενοχώρια [1954, Απ. Καλδάρας-Κ
TTITLE5=Βίρβος]
TTITLE6=Μπέλλου Σωτηρία-Μπίνης Τ.-Τσιτσάνης Β. - Απόψε κάνεις μπαμ [1953, Β. Τ
TTITLE6=σιτσάνης]
TTITLE7=Νίνου Μαρίκα-Τατασσόπουλος Γ.-Μητσάκης Γ. - Βαλεντίνα [1950, Γ. Μητσάκ
TTITLE7=ης]
TTITLE8=Τζουανάκος Σταύρος-Κυριαζής Γιάννης - Μεσάνυχτα (Σαν κουρέλι)[1954, Χ.
TTITLE8=Κολοκοτρώνης-Γ. Λαύκας]
TTITLE9=Καζαντζίδης Στέλιος-Γρίλλη Μαρία - Βύθισέ μου το μαχαίρι [1953, Χ. Βασ
TTITLE9=ιλειάδης-Γ. Κλουβάτος]
TTITLE10=Χρυσάφη Άννα-Τσιτσάνης Βασίλης - Φτωχόπαιδο με γνώρισες [1953, Β. Τσι
TTITLE10=τσάνης]
TTITLE11=Χατζηχρήστος Απ.-Καλφοπούλου Σ.-Τατασσόπουλος Γ. - Καροτσέρη τράβα [1
TTITLE11=947, Απ. Χατζηχρήστος]
TTITLE12=Μπίνης Τάκης-Λίντα Μαίρη - Ένας αλήτης πέθανε [1953, Κ. Καπλάνης]
TTITLE13=Μητσάκης Γιώργος-Πασαλάρη Σούλα-Περπινιάδης Σ. - Το παιδί που μπήκε τ
TTITLE13=ώρα [1947, Γ. Μητσάκης]
TTITLE14=Τζουανάκος Σταύρος - Του χωρισμού η μαχαιριά [1951, Σ. Τζουανάκος]
TTITLE15=Γαβαλάς Πάνος - Πέφτουν τα φύλλα απ' τα κλαριά [1955, Γ. Μητσάκης]
TTITLE16=Μπέλλου Σωτηρία-Περπινιάδης Στελλάκης - Άσ' τα λόγια κατά μέρος [1951
TTITLE16=, Γ. Μητσάκης]
TTITLE17=Λύδια Γιώτα-Ατταλίδης Στράτος - Κάποια φωνή ακούστηκε [1954, Γ. Κλουβ
TTITLE17=άτος]
EXTD=
EXTT0=
EXTT1=
EXTT2=
EXTT3=
EXTT4=
EXTT5=
EXTT6=
EXTT7=
EXTT8=
EXTT9=
EXTT10=
EXTT11=
EXTT12=
EXTT13=
EXTT14=
EXTT15=
EXTT16=
EXTT17=
PLAYORDER=
